<?xml version="1.0" standalone="no"?>
<!DOCTYPE svg PUBLIC "-//W3C//DTD SVG 20010904//EN"
 "http://www.w3.org/TR/2001/REC-SVG-20010904/DTD/svg10.dtd">
<svg version="1.0" xmlns="http://www.w3.org/2000/svg"
 width="269.000000pt" height="269.000000pt" viewBox="0 0 269.000000 269.000000"
 preserveAspectRatio="xMidYMid meet">
<metadata>
Created by potrace 1.14, written by Peter Selinger 2001-2017
</metadata>
<g transform="translate(0.000000,269.000000) scale(0.100000,-0.100000)"
fill="#000000" stroke="none">
<path d="M1792 1619 c-56 -14 -139 -61 -179 -104 -41 -45 -84 -137 -86 -186
-1 -21 -6 -39 -11 -39 -6 0 -5 -5 2 -12 16 -16 15 -33 -2 -71 -8 -18 -21 -57
-29 -87 -12 -47 -12 -61 0 -94 13 -38 37 -65 58 -66 6 0 19 20 29 45 11 25 23
45 27 45 4 0 21 -12 36 -26 15 -14 51 -38 78 -52 43 -22 63 -26 140 -27 82 0
96 3 157 33 65 32 148 109 148 138 0 8 5 14 10 14 6 0 10 8 10 18 0 10 3 22 8
26 7 8 9 14 11 47 1 20 5 21 54 15 87 -10 178 -34 256 -68 l43 -18 -6 47 c-3
27 -9 72 -13 102 l-6 54 54 -7 c30 -4 64 -10 76 -12 20 -5 22 -3 18 33 -9 77
-35 207 -44 216 -5 5 -83 10 -173 10 -337 0 -594 -66 -781 -200 -59 -42 -74
-36 -25 9 94 87 202 147 318 178 l44 12 -34 14 c-45 20 -135 25 -188 13z"/>
<path d="M50 1527 c0 -1 -7 -34 -15 -72 -9 -39 -18 -81 -21 -95 -10 -46 -11
-115 -1 -146 19 -63 123 -100 212 -75 21 6 40 9 41 8 1 -1 -4 -29 -12 -62 -27
-116 -33 -105 56 -105 43 0 81 4 84 9 3 5 8 24 11 42 2 19 9 49 14 67 5 18 10
35 10 37 0 11 23 121 28 135 3 8 7 25 9 36 1 12 12 65 23 118 12 52 21 98 21
101 0 3 -36 5 -80 5 l-79 0 -10 -37 c-6 -21 -13 -50 -16 -65 -5 -29 -11 -56
-20 -95 -3 -13 -7 -32 -9 -43 -8 -35 -16 -40 -61 -40 -55 0 -70 22 -60 86 3
24 6 46 6 49 1 2 7 28 15 57 24 90 25 88 -66 88 -44 0 -80 -1 -80 -3z"/>
<path d="M589 1529 c0 -2 -2 -11 -4 -19 -29 -147 -57 -275 -60 -281 -3 -4 -7
-22 -9 -40 -3 -19 -10 -56 -16 -84 -6 -27 -14 -67 -17 -88 l-5 -38 78 3 78 3
18 80 18 80 63 1 c84 0 160 27 205 74 64 64 67 72 67 166 0 48 -5 67 -20 84
-43 47 -71 54 -237 58 -87 2 -158 2 -159 1z m238 -145 c15 -20 13 -48 -5 -80
-13 -24 -30 -33 -85 -44 l-38 -8 5 34 c3 19 9 51 12 72 3 20 10 42 15 48 13
16 80 0 96 -22z"/>
<path d="M1055 1513 c-3 -10 -8 -32 -11 -50 -2 -18 -5 -38 -6 -45 -2 -9 16
-14 65 -16 l69 -3 -6 -32 c-2 -18 -7 -43 -10 -57 -7 -31 -25 -117 -31 -148 -2
-13 -7 -33 -11 -45 -4 -12 -8 -33 -10 -47 -1 -14 -3 -25 -4 -25 -1 0 -4 -15
-6 -32 l-5 -33 79 0 80 0 7 33 c4 17 9 39 11 47 2 8 10 47 19 85 9 39 18 84
21 100 6 41 12 70 14 70 1 0 4 14 6 30 8 54 9 55 83 55 69 0 71 1 77 28 3 15
10 41 14 59 4 17 5 34 2 37 -3 3 -103 6 -223 6 -197 0 -217 -2 -224 -17z"/>
</g>
</svg>
